name cmcinput
datacolumns 36
datarows 6
range 0.6881162790697667 0.6931162790697667
cursor 1.0 1.0 0.0
keys m_key
wrap
enforce_loops no
enforce_constraints no
calc_derivatives 0.001000
event_color 1.000000 0.000000 1.000000
endheader
time						calcn_r_tx						calcn_r_ty				calcn_r_tz					calcn_r_r1					calcn_r_r2					calcn_r_r3					calcn_l_tx					calcn_l_ty						calcn_l_tz					calcn_l_r1				calcn_l_r2					calcn_l_r3					pelvis_tz					pelvis_tx					pelvis_ty					pelvis_tilt					pelvis_list					pelvis_rotation				hip_flexion_r				hip_adduction_r				hip_rotation_r				knee_angle_r				ankle_angle_r				subtalar_angle_r				mtp_angle_r				hip_flexion_l				hip_adduction_l				hip_rotation_l				knee_angle_l				ankle_angle_l				subtalar_angle_l				mtp_angle_l				lumbar_extension			lumbar_bending				lumbar_rotation			
      0.6881162790697667	      0.8198233377693043	      0.1004431848621185	     -0.6042554292031850	     -2.4637754139039449	     13.4238928645515190	    -16.1628317566094320	      0.7650141349682912	      0.1096630695684705	     -0.8118226406220336	     -1.5473363998541527	     -5.2318469985325304	    -19.1241877020804090	     -0.7555696249550256	      1.0126448521327738	      0.8622062370239664	     -6.4542692816752707	     -5.2526708989699493	      6.9558323437901137	      9.1488901530404085	      2.4643769448188944	      6.0447227372304608	    -20.2316219728114110	      1.6566830965145860	      0.0000000000000577	      0.0000000000000001	     11.8751224400044410	     -1.6351879938028411	     11.3880975213238700	    -31.7912685379089090	      7.6690936199855191	      0.0000000000000012	     -0.0000000000000139	      0.3746574088033875	      5.7629233902772006	     -2.9179999230707425	    
      0.6891162790697667	      0.8199051451624684	      0.1007126445070313	     -0.6043264970395854	     -2.4396554911246899	     13.3812242938451220	    -16.2868284894065240	      0.7684053366971470	      0.1092428743594202	     -0.8120622457113145	     -1.5245859313671926	     -5.3033617286951040	    -18.9411850016874300	     -0.7553748309893981	      1.0136407304432449	      0.8623648576218788	     -6.4303155676559758	     -5.2007878664608223	      6.8708636826163048	      9.0649826517842822	      2.4388535024724702	      6.0900338946033514	    -20.2507959810434880	      1.6053791377622504	      0.0000000000000576	      0.0000000000000000	     12.0178066295800110	     -1.5816799431307136	     11.3736098944497130	    -31.7749871726500290	      7.6572378901185365	      0.0000000000000012	     -0.0000000000000138	      0.3216784018016972	      5.6904014971920054	     -2.7949555949062193	    
      0.6901162790697667	      0.8199893048607280	      0.1009790348862863	     -0.6043958469295443	     -2.4157027772099924	     13.3398947663584120	    -16.4105839283002370	      0.7717984107121043	      0.1088277301129077	     -0.8123040638995576	     -1.5013580922198904	     -5.3751115915011001	    -18.7589170856482600	     -0.7551790619439096	      1.0146355884682012	      0.8625197214275322	     -6.4055950667207169	     -5.1482902725878574	      6.7852696521011744	      8.9812394670076934	      2.4128635875231819	      6.1374839860048382	    -20.2716076535388150	      1.5549722266762205	      0.0000000000000574	     -0.0000000000000001	     12.1599673008917610	     -1.5282639941607741	     11.3585362028982730	    -31.7591873793290030	      7.6449289275821437	      0.0000000000000012	     -0.0000000000000138	      0.2676990361747801	      5.6170809316915369	     -2.6716420687271101	    
      0.6911162790697667	      0.8200758810883756	      0.1012423386900415	     -0.6044633555959884	     -2.3919212849934750	     13.2999409742960870	    -16.5340730810777890	      0.7751932005827162	      0.1084175672222559	     -0.8125481684477148	     -1.4776480285708093	     -5.4471198338461368	    -18.5773463263533960	     -0.7549823478865722	      1.0156294332784859	      0.8626707895251365	     -6.3801213329785034	     -5.0951837822795376	      6.6990657034100867	      8.8976871666874899	      2.3864044947365208	      6.1870941364527763	    -20.2940764025515110	      1.5054988755059366	      0.0000000000000572	     -0.0000000000000002	     12.3015992824411900	     -1.4749468406539359	     11.3429121112381140	    -31.7438402872760720	      7.6321981126547769	      0.0000000000000012	     -0.0000000000000137	      0.2127453394185380	      5.5429648561172682	     -2.5481041068674299	    
      0.6921162790697667	      0.8201649311552413	      0.1015025324849938	     -0.6045289205570520	     -2.3683142786968885	     13.2613925740739800	    -16.6572713194479220	      0.7785895536575495	      0.1080123265413485	     -0.8127946193572178	     -1.4534523345723431	     -5.5194062017069214	    -18.3964493794838230	     -0.7547847226790152	      1.0166222761439778	      0.8628180269646687	     -6.3539061286640015	     -5.0414718984761011	      6.6122701460386857	      8.8143467634420549	      2.3594711260599688	      6.2388758639934734	    -20.3182156339488920	      1.4569930079682807	      0.0000000000000569	     -0.0000000000000003	     12.4426946108960320	     -1.4217316282483066	     11.3267752557145250	    -31.7289146480292350	      7.6190604572057916	      0.0000000000000011	     -0.0000000000000136	      0.1568420006623067	      5.4680538521396125	     -2.4243879431638722	    
      0.6931162790697667	      0.8202565076035372	      0.1017595872167697	     -0.6045924587936868	     -2.3448838112834407	     13.2242740397650560	    -16.7801539607248780	      0.7819873198422602	      0.1076119574987951	     -0.8130434647329521	     -1.4287686314034025	     -5.5919868073310770	    -18.2162155230200930	     -0.7545862253497377	      1.0176141330169541	      0.8629614055433598	     -6.3269569463530351	     -4.9871577542549632	      6.5249055231317845	      8.7312302503825627	      2.3320581878174496	      6.2928314267880188	    -20.3440305666549110	      1.4094855155223596	      0.0000000000000566	     -0.0000000000000006	     12.5832404648500460	     -1.3686201004665559	     11.3101662340449810	    -31.7143774939219370	      7.6055168994909206	      0.0000000000000011	     -0.0000000000000135	      0.1000098174411516	      5.3923482976307238	     -2.3005424465397026	    
